<svg xmlns="http://www.w3.org/2000/svg" xmlns:xlink="http://www.w3.org/1999/xlink" width="500" zoomAndPan="magnify" viewBox="0 0 375 374.999991" height="500" preserveAspectRatio="xMidYMid meet" version="1.0"><defs><clipPath id="aa058a3f0f"><path d="M 174 226 L 204 226 L 204 236.644531 L 174 236.644531 Z M 174 226 " clip-rule="nonzero"/></clipPath><clipPath id="a4db5a55c8"><path d="M 174 138.394531 L 204 138.394531 L 204 149 L 174 149 Z M 174 138.394531 " clip-rule="nonzero"/></clipPath></defs><g clip-path="url(#aa058a3f0f)"><path fill="#f58426" d="M 174.390625 226.8125 L 174.390625 233.367188 C 174.390625 236.644531 176.53125 236.644531 177.664062 236.644531 L 200.601562 236.644531 C 201.734375 236.644531 203.878906 236.644531 203.878906 233.367188 L 203.878906 226.8125 Z M 174.390625 226.8125 " fill-opacity="1" fill-rule="nonzero"/></g><path fill="#f58426" d="M 180.941406 203.878906 L 180.941406 171.113281 L 194.046875 171.113281 L 194.046875 203.878906 Z M 180.941406 203.878906 " fill-opacity="1" fill-rule="nonzero"/><g clip-path="url(#a4db5a55c8)"><path fill="#f58426" d="M 174.390625 141.625 L 174.390625 148.175781 L 203.878906 148.175781 L 203.878906 141.625 C 203.878906 138.347656 201.734375 138.347656 200.601562 138.347656 L 177.664062 138.347656 C 176.53125 138.347656 174.390625 138.347656 174.390625 141.625 Z M 174.390625 141.625 " fill-opacity="1" fill-rule="nonzero"/></g><path fill="#f58426" d="M 181.761719 207.15625 L 167.835938 207.15625 C 166.703125 207.15625 164.558594 207.15625 164.558594 210.429688 L 164.558594 220.261719 C 164.558594 223.539062 166.703125 223.539062 167.835938 223.539062 L 207.15625 223.539062 C 208.289062 223.539062 210.429688 223.539062 210.429688 220.261719 L 210.429688 210.429688 C 210.429688 207.15625 208.289062 207.15625 207.15625 207.15625 Z M 181.761719 207.15625 " fill-opacity="1" fill-rule="nonzero"/><path fill="#f58426" d="M 202.238281 151.453125 L 167.835938 151.453125 C 166.703125 151.453125 164.558594 151.453125 164.558594 154.730469 L 164.558594 164.820312 C 164.558594 167.835938 166.703125 167.835938 167.835938 167.835938 L 207.15625 167.835938 C 208.289062 167.835938 210.429688 167.835938 210.429688 164.820312 L 210.429688 154.730469 C 210.429688 151.453125 208.289062 151.453125 207.15625 151.453125 Z M 202.238281 151.453125 " fill-opacity="1" fill-rule="nonzero"/></svg>